Input #0, mov,mp4,m4a,3gp,3g2,mj2, from '/home/hbattu/projects/huberman-gpt/huberman-audio/mp3/tmpc0rem5fy.mp4':
  Metadata:
    major_brand     : dash
    minor_version   : 0
    compatible_brands: iso6mp41
    creation_time   : 2021-08-04T00:12:58.000000Z
  Duration: 01:52:43.67, start: 0.000000, bitrate: 129 kb/s
    Stream #0:0(und): Audio: aac (LC) (mp4a / 0x6134706D), 44100 Hz, stereo, fltp, 0 kb/s (default)
    Metadata:
      creation_time   : 2021-08-04T00:12:58.000000Z
      handler_name    : ISO Media file produced by Google Inc.
Stream mapping:
  Stream #0:0 -> #0:0 (aac (native) -> mp3 (libmp3lame))
Press [q] to stop, [?] for help
[graph_0_in_0_0 @ 0x55ef8f196f80] tb:1/44100 samplefmt:fltp samplerate:44100 chlayout:0x3
Output #0, mp3, to '../huberman-audio/mp3/rW9QKc-iFoY.mp3':
  Metadata:
    major_brand     : dash
    minor_version   : 0
    compatible_brands: iso6mp41
    TSSE            : Lavf58.29.100
    Stream #0:0(und): Audio: mp3 (libmp3lame), 44100 Hz, stereo, fltp, delay 1105 (default)
    Metadata:
      creation_time   : 2021-08-04T00:12:58.000000Z
      handler_name    : ISO Media file produced by Google Inc.
      encoder         : Lavc58.54.100 libmp3lame
No more output streams to write to, finishing.
size=  105683kB time=01:52:43.67 bitrate= 128.0kbits/s speed=71.6x    
[AVIOContext @ 0x55ef8f088900] Statistics: 0 seeks, 189 writeouts
video:0kB audio:105683kB subtitle:0kB other streams:0kB global headers:0kB muxing overhead: 0.000320%
Input file #0 (/home/hbattu/projects/huberman-gpt/huberman-audio/mp3/tmpc0rem5fy.mp4):
  Input stream #0:0 (audio): 291287 packets read (108218734 bytes); 291287 frames decoded (298277888 samples); 
  Total: 291287 packets (108218734 bytes) demuxed
Output file #0 (../huberman-audio/mp3/rW9QKc-iFoY.mp3):
  Output stream #0:0 (audio): 258922 frames encoded (298277888 samples); 258923 packets muxed (108219245 bytes); 
  Total: 258923 packets (108219245 bytes) muxed
[AVIOContext @ 0x55ef8f0b21c0] Statistics: 2 seeks, 414 writeouts
[AVIOContext @ 0x55ef8f091880] Statistics: 109463194 bytes read, 0 seeks
